<svg width="75" height="75" viewBox="0 0 75 75" fill="none" xmlns="http://www.w3.org/2000/svg">
<path d="M37.5004 0C16.7893 0 0 16.7893 0 37.5004C0 58.2114 16.7893 75.0007 37.5004 75.0007C58.2114 75.0007 75.0007 58.2114 75.0007 37.5004C75.0007 16.7893 58.2107 0 37.5004 0ZM57.4684 40.7217L50.2908 53.0711C49.7183 54.0516 48.8966 54.8659 47.9073 55.4311C46.9181 55.9963 45.7973 56.2939 44.6559 56.2924H30.3323C29.191 56.2932 28.0702 55.9963 27.0809 55.4311C26.0917 54.8659 25.27 54.0516 24.6974 53.0711L17.5302 40.7217C16.9642 39.7412 16.6673 38.63 16.6673 37.5004C16.6673 36.3707 16.965 35.2595 17.5302 34.2791L24.6974 21.9296C25.2707 20.9477 26.0939 20.1334 27.0846 19.5675C28.0753 19.0023 29.1983 18.7053 30.3404 18.7076H44.664C45.8054 18.7068 46.9262 19.0037 47.9154 19.5689C48.9047 20.1341 49.7263 20.9484 50.2989 21.9289L57.4684 34.2783C58.0358 35.2587 58.3334 36.3693 58.3334 37.4996C58.3334 38.63 58.035 39.7412 57.4684 40.7209V40.7217Z" fill="#000029"/>
<path d="M51.6227 35.9783H50.0771C49.8081 35.9783 49.5443 35.9077 49.3113 35.7747C49.0783 35.641 48.885 35.4499 48.7498 35.2184L46.9286 32.0852L45.1176 28.9521C44.9831 28.7206 44.9126 28.4582 44.9126 28.1907C44.9126 27.9232 44.9831 27.6608 45.1176 27.4293L45.8908 26.0873C46.0745 25.7396 46.1164 25.3339 46.0062 24.9569C45.8959 24.5791 45.6439 24.2587 45.3006 24.0617C44.9581 23.8648 44.5525 23.8074 44.1681 23.9015C43.7837 23.9956 43.4508 24.233 43.2391 24.5652L42.4659 25.894C42.3321 26.1262 42.1389 26.3188 41.9059 26.4525C41.6729 26.5863 41.4083 26.6569 41.1393 26.6561H33.8559C33.5869 26.6561 33.3223 26.5863 33.0893 26.4525C32.8564 26.3188 32.6631 26.1262 32.5293 25.894L31.7561 24.5652C31.6599 24.3836 31.5283 24.2234 31.3681 24.0933C31.2079 23.964 31.0234 23.8677 30.825 23.8104C30.6265 23.753 30.4185 23.7369 30.2135 23.7619C30.0084 23.7869 29.8107 23.8523 29.6321 23.9552C29.4535 24.0581 29.297 24.1955 29.1735 24.3594C29.0493 24.5233 28.9604 24.7107 28.9111 24.9099C28.8619 25.109 28.8538 25.3163 28.8869 25.5184C28.9199 25.7205 28.9942 25.9146 29.1044 26.088L29.8776 27.43C30.0121 27.6615 30.0826 27.9239 30.0826 28.1914C30.0826 28.459 30.0121 28.7213 29.8776 28.9529L28.0564 32.086L26.2352 35.2191C26.1007 35.4506 25.9074 35.6424 25.6744 35.7754C25.4414 35.9085 25.1776 35.979 24.9086 35.979H23.3629C22.9565 35.979 22.567 36.1393 22.2796 36.4251C21.9923 36.711 21.8306 37.0976 21.8306 37.5019C21.8306 37.9061 21.9923 38.2927 22.2796 38.5786C22.567 38.8645 22.9565 39.0247 23.3629 39.0247H24.9086C25.1776 39.0247 25.4414 39.0945 25.6744 39.2283C25.9074 39.362 26.1007 39.5539 26.2352 39.7846L28.0564 42.9177L29.8776 46.0509C30.0121 46.2824 30.0826 46.5448 30.0826 46.8123C30.0826 47.0798 30.0121 47.3422 29.8776 47.5737L29.1044 48.9025C28.9942 49.0759 28.9199 49.2692 28.8869 49.4721C28.8538 49.6742 28.8619 49.8814 28.9111 50.0806C28.9604 50.2798 29.05 50.4672 29.1735 50.6311C29.2977 50.795 29.4535 50.9324 29.6321 51.0353C29.8107 51.1382 30.0084 51.2036 30.2135 51.2286C30.4185 51.2536 30.6265 51.2367 30.825 51.1801C31.0234 51.1228 31.2079 51.0272 31.3681 50.8972C31.5283 50.7678 31.6599 50.6068 31.7561 50.4253L32.5293 49.0965C32.6631 48.8643 32.8564 48.6717 33.0893 48.5379C33.3223 48.4042 33.5869 48.3336 33.8559 48.3344H41.1283C41.3973 48.3344 41.6619 48.4042 41.8949 48.5379C42.1278 48.6717 42.3211 48.865 42.4549 49.0965L43.2281 50.4253C43.4397 50.7575 43.7727 50.9949 44.157 51.089C44.5414 51.1831 44.9471 51.1257 45.2896 50.9288C45.6321 50.7325 45.8849 50.4114 45.9944 50.0336C46.1047 49.6558 46.0635 49.2509 45.879 48.9025L45.1059 47.5737C44.9714 47.3422 44.9008 47.0798 44.9008 46.8123C44.9008 46.5448 44.9714 46.2824 45.1059 46.0509L46.9271 42.9177L48.7593 39.7846C48.8938 39.5539 49.0879 39.362 49.3208 39.229C49.5538 39.096 49.8177 39.0254 50.0867 39.0254H51.622C52.0284 39.0254 52.4179 38.8652 52.7053 38.5793C52.9927 38.2934 53.1544 37.9068 53.1544 37.5026C53.1544 37.0984 52.9927 36.7118 52.7053 36.4259C52.4179 36.1407 52.0284 35.9798 51.622 35.9798L51.6227 35.9783Z" fill="#000029"/>
</svg>
